<svg width="100" height="18" viewBox="0 0 100 18" fill="none" xmlns="http://www.w3.org/2000/svg">
<g clip-path="url(#clip0_268_36)">
<path d="M98.6133 6.02548C98.2128 6.02548 97.8805 5.89279 97.6161 5.62742C97.3517 5.36204 97.2189 5.03444 97.2178 4.64461C97.2178 4.25008 97.3505 3.9179 97.6161 3.64805C97.8817 3.37821 98.2139 3.24329 98.6133 3.24329C99.0078 3.24329 99.3372 3.37821 99.6017 3.64805C99.8661 3.9179 99.9989 4.25008 100 4.64461C100.003 4.82633 99.97 5.00687 99.9017 5.17524C99.8333 5.3436 99.7311 5.49626 99.6017 5.62389C99.3372 5.89185 99.0078 6.02571 98.6133 6.02548ZM98.6133 3.44725C98.2678 3.44725 97.9833 3.56182 97.7589 3.79097C97.535 4.02011 97.4222 4.30466 97.4217 4.64461C97.4183 4.79992 97.4467 4.95429 97.5055 5.0982C97.5639 5.2421 97.6511 5.37249 97.7622 5.48132C97.9889 5.70787 98.2728 5.82116 98.6133 5.82116C98.9483 5.82116 99.2294 5.70787 99.4567 5.48132C99.5678 5.37242 99.655 5.24201 99.7133 5.09812C99.7717 4.95422 99.8 4.79989 99.7967 4.64461C99.7967 4.30443 99.6833 4.01988 99.4567 3.79097C99.3472 3.6788 99.2161 3.59039 99.0705 3.53125C98.9255 3.47211 98.77 3.44351 98.6133 3.44725ZM98.3883 5.17642H98.6V5.31264H97.8939V5.17642H98.0983V4.02565H97.8939V3.89119H98.5667C98.7522 3.89119 98.8972 3.92519 99.0017 3.99318C99.0511 4.02264 99.0911 4.06465 99.1189 4.11487C99.1467 4.16511 99.16 4.22176 99.1583 4.27902C99.1589 4.32125 99.15 4.36304 99.1328 4.40169C99.1155 4.44034 99.0911 4.47501 99.0594 4.50346C98.9839 4.57209 98.8911 4.61903 98.7911 4.63933L99.3694 5.31299H99.0222L98.4928 4.66685H98.39L98.3883 5.17642ZM98.5311 4.02565H98.39V4.54263H98.5311C98.64 4.54263 98.7239 4.51969 98.7828 4.47452C98.8122 4.45119 98.8361 4.42108 98.8511 4.38674C98.8667 4.35239 98.8739 4.31484 98.8717 4.27726C98.8733 4.24086 98.8661 4.2046 98.85 4.17188C98.8339 4.13916 98.8094 4.11106 98.7794 4.09022C98.7055 4.04351 98.6189 4.02095 98.5311 4.02565Z" fill="#0B0C0D"/>
<path d="M56.7015 4.56005C54.702 4.56005 53.5392 5.38491 53.0371 6.90953H52.8428C52.9074 6.44869 52.9423 5.9842 52.9474 5.5189V4.82805H50.9536L50.9984 6.65047V16.7304H53.0102V10.0154C53.0102 7.70464 54.2836 6.14425 56.2026 6.14425C57.8554 6.14425 58.7943 7.1448 58.7943 8.99103V16.7333H60.8032V8.76469C60.7882 6.07275 59.1587 4.56005 56.7015 4.56005ZM63.6815 3.51485V4.82805H61.9598V6.38547H63.6815V16.7065H65.6665V6.38547H67.7887V4.82805H65.6665V3.51485C65.6665 2.71382 66.0009 2.40412 66.8054 2.40412H68.0337V0.858643H66.6287C64.5721 0.858643 63.6815 1.62394 63.6815 3.51485ZM82.8837 6.85597H82.6687C82.7304 6.39592 82.7615 5.93237 82.7615 5.46829V4.82805H80.7526L80.7976 6.65047V16.7304H82.8059V10.1792C82.8059 7.95475 83.7893 6.43608 85.5321 6.43608H86.4471V4.61068H85.9271C84.1332 4.60472 83.3532 5.68269 82.8837 6.85597ZM97.4443 11.1678C97.4443 6.78447 95.6148 4.56005 92.0637 4.56005C88.6915 4.56005 86.6593 6.7398 86.6593 10.7687C86.6593 14.7977 88.6021 16.9954 92.1743 16.9954C94.8315 16.9954 96.9298 15.7268 97.2559 13.1689H95.3126C94.9987 14.6578 93.7732 15.4826 92.1859 15.4826C90.0221 15.4826 88.8143 14.0384 88.6348 11.4566H97.4559L97.4443 11.1678ZM88.6471 9.94392C88.8471 7.51997 90.0309 6.0728 92.0637 6.0728C94.0959 6.0728 95.256 7.51997 95.4565 9.94392H88.6471ZM78.2954 8.47586C78.2954 5.93877 76.8426 4.56005 73.5843 4.56005C70.7687 4.56005 68.9154 5.58442 68.8021 8.09769H70.8104C70.9454 6.71897 71.9732 6.11747 73.5815 6.11747C75.3215 6.11747 76.2721 6.82914 76.2721 8.47586V8.98803L72.6248 9.49425C70.1887 9.84864 68.3804 10.8939 68.3804 13.3416C68.3804 15.6554 69.9676 16.9894 72.2004 16.9894C74.9087 16.9894 75.5843 15.7983 76.2748 14.6935H76.5232C76.4026 15.3634 76.3604 16.0449 76.3976 16.7244H78.4059C78.3137 15.7924 78.2765 14.8557 78.2954 13.9193V8.47586ZM76.3615 11.4805C76.3615 14.2379 74.2693 15.4171 72.7209 15.4171C71.2921 15.4171 70.3982 14.637 70.3982 13.3476C70.3982 11.9897 71.3365 11.2333 72.9898 10.9891L76.3615 10.5007V11.4805Z" fill="#0B0C0D"/>
<path d="M43.6113 4.59473C40.1428 4.59473 38.1558 6.81294 38.1558 10.7861C38.1558 14.7593 40.1428 16.9953 43.6113 16.9953C47.0797 16.9953 49.046 14.7563 49.046 10.7861C49.046 6.81589 47.0797 4.59473 43.6113 4.59473ZM43.6113 15.4423C41.3374 15.4423 40.1428 13.6606 40.1428 10.7861C40.1428 7.91167 41.3255 6.14778 43.6113 6.14778C45.8969 6.14778 47.056 7.9295 47.056 10.7861C47.056 13.6428 45.8851 15.4542 43.6113 15.4542V15.4423Z" fill="#0B0C0D"/>
<path d="M31.3696 4.59473C27.8505 4.59473 25.8345 6.81294 25.8345 10.7861C25.8345 14.7593 27.8505 16.9953 31.3696 16.9953C34.8887 16.9953 36.8838 14.7563 36.8838 10.7861C36.8838 6.81589 34.8887 4.59473 31.3696 4.59473ZM31.3696 15.4423C29.0596 15.4423 27.8505 13.6606 27.8505 10.7861C27.8505 7.91167 29.0506 6.14778 31.3696 6.14778C33.6887 6.14778 34.8648 7.9295 34.8648 10.7861C34.8648 13.6428 33.6767 15.4542 31.3696 15.4542V15.4423Z" fill="#0B0C0D"/>
<path d="M24.0063 0.858643H21.9671C16.5394 10.9847 15.9519 11.9206 15.4766 13.5541H15.2664C15.6719 11.7107 15.5182 10.5658 15.5182 0.858643H8.96817C6.80022 0.858643 5.06607 2.63314 5.03783 4.75532C5.03224 5.30555 5.06974 5.85539 5.14999 6.3998L6.93983 6.10614C6.87394 5.68124 6.84144 5.25185 6.84261 4.82188V4.79367C6.84261 3.5368 7.82144 2.67072 8.96817 2.67072H11.6546C12.6616 2.67072 12.8012 2.55873 12.8012 2.55873L12.8993 2.71534C11.8922 4.15388 11.0106 5.41074 8.11478 10.8595C6.84183 13.2338 5.42843 15.2447 2.93814 15.2447C2.15381 15.2447 1.62281 15.0357 1.06357 14.728L0 16.3764C0.755322 16.8235 1.69261 17.0749 2.8401 17.0749C6.07161 17.0749 8.07167 14.7561 10.0561 11.0552C10.0561 11.0552 13.2311 5.4687 13.4828 4.6167H13.7064C13.4413 5.83206 13.4828 7.82736 13.4828 8.70914V16.6833H15.5151C20.6627 7.08892 21.6706 5.4687 21.9467 4.6167H22.171C21.891 5.83206 21.9608 7.82736 21.9608 16.6833H24.0001L24.0063 0.858643Z" fill="#0B0C0D"/>
</g>
<defs>
<clipPath id="clip0_268_36">
<rect width="100" height="17" fill="white" transform="translate(0 0.5)"/>
</clipPath>
</defs>
</svg>
