<svg width="130" height="31" viewBox="0 0 130 31" fill="none" xmlns="http://www.w3.org/2000/svg">
<path d="M0.882812 1.71826V22.0068H17.8087V17.6096H17.7926H5.29617V6.11545H15.6264V1.71826H0.882812ZM9.09522 9.57501V13.9722H21.6078V25.4664H11.2615V29.8635H26.0051H26.0212V9.57501H26.0051H9.09522Z" fill="#0B0C0D"/>
<path d="M51.6332 9.56055V21.8953H55.3999V20.4404H53.379V9.56055H51.6332ZM68.058 9.56055V21.8953H69.8038V21.0385C70.4307 21.7158 71.3462 22.057 72.2611 22.057C74.6837 22.057 76.044 20.075 76.044 17.8053C76.044 15.5178 74.9833 13.2626 72.3743 13.2626C71.4594 13.2626 70.4286 13.5834 69.8523 14.3458H69.8038V9.56055H68.058ZM34.7395 10.2557C32.8422 10.2557 31.199 11.4581 31.199 13.4404C31.199 15.1517 32.5295 15.8848 33.8342 16.512C35.1385 17.122 36.437 17.6189 36.4369 18.8723C36.4369 19.9908 35.5281 20.4565 34.5455 20.4565C33.4613 20.4565 32.6869 19.7949 32.6702 18.7106H30.9243V19.0663C30.9243 20.964 32.8174 22.057 34.5455 22.057C36.4431 22.057 38.1829 20.8726 38.1829 18.856C38.1829 16.9079 36.8476 16.0937 35.2891 15.3481L34.2707 14.863C33.6101 14.558 32.945 14.1251 32.945 13.2949C32.945 12.2107 33.7923 11.8561 34.7071 11.8561C35.6221 11.8561 36.3916 12.3453 36.3238 13.3111H38.0697V13.0848C38.0697 11.3566 36.3151 10.2557 34.7395 10.2557ZM125.981 10.2557C122.406 10.2557 121.39 13.0564 121.39 16.1401C121.39 19.088 122.347 22.057 125.82 22.057C126.921 22.057 128.101 21.7852 129.118 21.3618V15.7522H125.011V17.3364H127.372V20.1817C126.931 20.3513 126.474 20.4565 125.965 20.4565C123.424 20.4565 123.136 18.0109 123.136 15.9946C123.136 13.8262 123.542 11.8561 125.981 11.8561C126.743 11.8561 127.202 12.0351 127.372 12.7129H129.118V12.5836C129.118 11.4146 127.659 10.2557 125.981 10.2557ZM114.228 10.4174L111.092 21.8953H112.854L113.663 18.5974H116.993L117.817 21.8953H119.579L116.443 10.4174H114.228ZM115.328 12.0178H115.36L116.605 16.9969H114.083L115.328 12.0178ZM44.6655 13.2626C43.1067 13.2626 41.3082 13.6612 41.1897 15.5421H42.9357C42.9357 14.7119 43.8487 14.5883 44.7463 14.5883C46.1864 14.5883 46.3145 15.2878 46.3145 16.2534V16.5605H44.7463C42.8829 16.5605 40.8179 17.2192 40.8179 19.4219C40.8179 21.1498 42.214 22.057 43.8572 22.057C44.7551 22.057 45.6537 21.7139 46.3145 21.087V21.8953H48.0604V16.609C48.0604 14.1183 47.1219 13.2626 44.6655 13.2626ZM93.6813 13.2626C92.7834 13.2626 92.0078 13.651 91.4827 14.3458H91.4504V13.4081H89.7044V21.8953H91.4504V17.5143C91.4504 16.2263 91.7943 14.572 93.455 14.572C94.1998 14.572 94.5219 15.2527 94.5219 15.9139V16.1725H96.2679V15.833C96.2679 14.3251 95.1726 13.2626 93.6813 13.2626ZM101.279 13.2626C98.9586 13.2626 97.836 15.0381 97.836 17.2072C97.836 19.4602 98.8555 21.3942 101.312 21.3942C102.244 21.3942 102.863 21.1137 103.591 20.5374L103.656 20.4889V21.7498C103.656 23.0715 103.341 23.528 101.376 23.528C100.801 23.528 99.871 23.4498 99.9214 22.6875H98.1916V22.8654C98.1917 24.6443 100.054 24.8376 101.393 24.8376C103.646 24.8376 105.402 24.2297 105.402 21.6204V13.4081H103.656V14.1679H103.64C103.131 13.4903 102.126 13.2626 101.279 13.2626ZM58.2289 13.4081V14.863H62.5129L57.9218 20.1332V21.8953H64.8247V20.4404H59.797L64.4368 15.0893V13.4081H58.2289ZM78.8569 13.4081V18.9693C78.8569 20.8158 79.9498 22.057 81.8639 22.057C82.8465 22.057 84.0324 21.7372 84.6929 20.9576V21.8953H86.4389V13.4081H84.6929V17.7083C84.6929 19.4197 84.0517 20.602 82.171 20.602C80.9686 20.602 80.6028 20.1214 80.6028 18.9693V13.4081H78.8569ZM101.554 14.572C103.164 14.572 103.656 15.8494 103.656 17.2557C103.656 18.594 103.194 20.0847 101.635 20.0847C99.9915 20.0847 99.5657 18.7273 99.5657 17.3042C99.5657 15.9654 99.9788 14.572 101.554 14.572ZM72.148 14.7175C73.7914 14.7175 74.2981 16.3843 74.2981 17.7568C74.2981 19.1294 73.6433 20.602 72.0672 20.602C70.407 20.602 69.8038 19.0832 69.8038 17.6598C69.8038 16.1523 70.4372 14.7175 72.148 14.7175ZM44.5039 17.8861H46.3145V18.1771C46.3145 19.5666 45.5765 20.7314 44.035 20.7314C43.188 20.7314 42.5639 20.2381 42.5639 19.3573C42.5639 18.2391 43.5553 17.8861 44.5039 17.8861Z" fill="#0B0C0D"/>
</svg>
