<svg width="98" height="22" viewBox="0 0 98 22" fill="none" xmlns="http://www.w3.org/2000/svg">
<g clip-path="url(#clip0_268_78)">
<path d="M82.9974 5.57162H85.0821V3.48325H82.9974V5.57162ZM37.2421 10.746L32.893 9.69272C31.4257 9.34891 30.6642 8.5318 30.6642 7.31526C30.6642 5.62724 32.2237 4.5019 34.5428 4.5019C36.8618 4.5019 38.3666 5.69929 38.5298 7.65998L38.548 7.9135H40.3966V7.6235C40.3054 4.7919 37.9133 2.77649 34.5437 2.77649C31.174 2.77649 28.8358 4.7007 28.8358 7.33259C28.8358 9.43828 30.1225 10.8728 32.4234 11.4719L36.7542 12.5243C38.2216 12.8709 38.983 13.7044 38.983 14.9209C38.983 16.6992 37.3342 17.8082 34.6695 17.8082C32.0057 17.8082 30.3934 16.6272 30.2119 14.5762L30.1937 14.3227H28.3442V14.5954C28.5075 17.6267 30.9351 19.4971 34.6504 19.4971C38.3657 19.4971 40.7933 17.6641 40.7933 14.9218C40.7933 12.7979 39.5257 11.3096 37.2412 10.7469M48.6041 7.49765C45.3959 7.49765 43.24 9.9125 43.24 13.4883C43.24 17.0631 45.3959 19.4597 48.6041 19.4597C51.8124 19.4597 54.0038 17.0093 54.0038 13.4883C54.0038 9.96721 51.7932 7.49765 48.6041 7.49765ZM48.6041 17.7544C46.4483 17.7544 45.0521 16.0837 45.0521 13.4883C45.0521 10.8919 46.4291 9.16743 48.6041 9.16743C50.7782 9.16743 52.1562 10.8381 52.1562 13.4883C52.1562 16.1384 50.7974 17.7544 48.6041 17.7544ZM56.777 19.2618H58.5352V3.0291H56.777V19.2618ZM79.3386 7.49948C77.9434 7.49948 76.8372 8.06215 76.2763 9.26045V7.66363H74.5527V19.2627H76.311V12.6912C76.311 10.767 77.108 9.29693 79.0295 9.29693C79.5903 9.29693 80.226 9.36989 80.6436 9.44193V7.68096C80.3536 7.58976 79.8092 7.49948 79.3386 7.49948ZM83.1442 19.2609H84.9189V7.6618H83.1442V19.2609ZM94.2335 12.8353L91.9153 12.3821C90.3741 12.0738 90.1753 11.419 90.1753 10.8746C90.1753 9.82221 91.1903 9.14919 92.7124 9.14919C94.2344 9.14919 95.213 9.83954 95.3032 11.0369L95.3215 11.274H97.1344L97.1162 10.9822C97.025 9.38448 95.8121 7.49765 92.7124 7.49765C90.2118 7.49765 88.3815 8.93124 88.3815 10.9102C88.3815 12.5809 89.3965 13.615 91.4794 14.0509L93.7821 14.5042C95.3224 14.8316 95.5394 15.4307 95.5394 15.9934C95.5394 17.1187 94.5244 17.7899 92.7671 17.7899C91.0089 17.7899 89.9218 17.0275 89.8306 15.7389L89.8124 15.4854H87.9994L88.0177 15.7937C88.1636 18.0444 89.9939 19.4606 92.7653 19.4606C95.5376 19.4606 97.3323 18.0453 97.3323 15.9761C97.3323 14.3236 96.2991 13.2712 94.2335 12.8353ZM66.5093 7.49857C64.534 7.49857 62.1602 8.40596 61.997 10.9831L61.9788 11.2749H63.7543L63.7726 11.0378C63.9714 9.45926 65.3484 9.13187 66.5084 9.13187C67.8125 9.13187 69.3902 9.53221 69.3902 11.3844V11.9461L65.3484 12.6356C62.9381 13.0715 61.634 14.2689 61.634 16.121C61.634 17.6449 62.6491 19.425 65.4761 19.425C67.1067 19.425 68.5202 18.7538 69.3719 17.5373V19.2627H71.0937V11.2759C71.0937 8.89841 69.3719 7.50039 66.5093 7.50039M65.5846 14.1987L69.3902 13.5448V14.1804C69.3902 16.6855 67.4879 17.8109 65.6211 17.8109C64.244 17.8109 63.4279 17.1762 63.4279 16.1594C63.4279 15.1425 64.1173 14.4713 65.5846 14.1987Z" fill="#0B0C0D"/>
<path d="M3.30753 4.1006C3.2654 4.10174 3.22403 4.11213 3.18636 4.13104C3.1487 4.14996 3.11565 4.17692 3.08958 4.21004C1.52166 6.03184 0.661594 8.35697 0.666525 10.7606C0.666525 16.0572 5.00193 20.792 10.2894 20.792C12.5419 20.792 14.3148 19.3876 14.3148 17.1315C14.3148 15.2054 12.9231 13.8503 10.8904 12.9885L7.8463 11.6944C5.39316 10.6511 3.37046 8.76523 3.37046 6.10689C3.37046 5.65548 3.45071 4.87303 3.54099 4.43073C3.58203 4.23648 3.45527 4.1006 3.30844 4.1006M11.071 0.729126C8.81844 0.729126 7.04561 2.13353 7.04561 4.39152C7.04561 6.31664 8.43725 7.6718 10.47 8.53359L13.5141 9.82856C15.9672 10.8709 17.9899 12.7568 17.9899 15.4161C17.9899 15.8666 17.9097 16.649 17.8194 17.0913C17.7802 17.2856 17.9051 17.4224 18.0519 17.4224C18.1249 17.4224 18.2042 17.3886 18.2699 17.312C19.8378 15.4902 20.6979 13.1651 20.6929 10.7615C20.6929 5.46488 16.3575 0.730038 11.07 0.730038" fill="#0B0C0D"/>
</g>
<defs>
<clipPath id="clip0_268_78">
<rect width="96.6667" height="20.5417" fill="white" transform="translate(0.666504 0.729126)"/>
</clipPath>
</defs>
</svg>
