<svg width="120" height="19" viewBox="0 0 120 19" fill="none" xmlns="http://www.w3.org/2000/svg">
<g clip-path="url(#clip0_268_82)">
<path fill-rule="evenodd" clip-rule="evenodd" d="M10.321 11.4541C10.4923 11.2827 10.4923 11.0256 10.321 10.8543C10.321 10.8543 7.26466 7.79796 7.23609 7.79796C7.1504 7.71227 7.12184 7.62658 7.12184 7.51233C7.12184 7.39808 7.17897 7.31238 7.23609 7.22669L13.5201 0.942725C13.6058 0.857035 13.6629 0.771341 13.6629 0.628524C13.6629 0.400016 13.4915 0.228638 13.263 0.228638H7.1504C7.03615 0.228638 6.92189 0.285763 6.86477 0.34289L0.495105 6.65542C0.29516 6.88393 0.152344 7.16957 0.152344 7.51233C0.152344 7.85509 0.266597 8.14073 0.495105 8.34067L6.66482 14.5104C6.8362 14.6818 7.09328 14.6818 7.26466 14.5104L10.321 11.4541ZM14.5198 7.19813C14.3484 7.36951 14.3484 7.62658 14.5198 7.79796L17.6046 10.8543C17.6903 10.9399 17.7189 11.0256 17.7189 11.1399C17.7189 11.2541 17.6903 11.3684 17.6046 11.4255L11.3207 17.7095C11.235 17.7952 11.1779 17.8809 11.1779 18.0237C11.1779 18.2522 11.3492 18.4236 11.5777 18.4236H17.6903C17.8046 18.4236 17.9188 18.3665 17.976 18.3093L24.3171 11.9682C24.517 11.7397 24.6598 11.4541 24.6598 11.1113C24.6598 10.7686 24.517 10.4829 24.3171 10.283L18.1473 4.11327C17.976 3.94189 17.7189 3.94189 17.5475 4.11327L14.5198 7.19813ZM39.2843 4.85592C38.256 4.4846 36.6279 4.1704 35.2569 4.1704C32.7719 4.1704 31.2009 5.3415 31.2009 7.31238C31.2009 9.05476 32.2292 9.76885 34.4571 10.2259C34.5714 10.2544 34.7142 10.283 34.8284 10.3116C35.9138 10.5401 36.8279 10.7114 36.8279 11.4255C36.8279 11.9968 36.2852 12.2824 35.2283 12.2824C34.3428 12.2539 33.0575 12.0254 31.4579 11.4255L30.9152 13.5964C32.4577 14.1676 34.0858 14.4533 35.3426 14.4533C37.8562 14.4533 39.5128 13.3678 39.5128 11.2541C39.5128 9.34039 38.1418 8.68343 36.1138 8.25498C36.0281 8.22642 35.9424 8.22642 35.8282 8.19785C34.5999 7.94078 33.8858 7.79796 33.8858 7.16957C33.8858 6.54117 34.4 6.2841 35.2854 6.2841C36.1424 6.2841 37.3706 6.51261 38.7702 6.94106L39.2843 4.85592ZM42.3692 4.45604C43.5403 4.39891 44.8542 4.34178 46.1967 4.34178C48.8245 4.34178 50.5098 5.54145 50.5098 7.88365C50.5098 10.1402 48.796 11.5969 46.1681 11.5969H44.7971V14.2533H42.3406V4.45604H42.3692ZM44.8257 6.36979V9.42608H46.3395C47.3392 9.42608 48.0819 8.85481 48.0819 7.88365C48.0819 6.88393 47.3678 6.34123 46.3395 6.34123C45.8539 6.36979 45.3398 6.36979 44.8257 6.36979ZM70.2757 4.45604V10.1116L65.677 4.45604H63.4205V14.2248H65.877V8.62631L70.5042 14.2248H72.7608V4.45604H70.2757ZM75.9884 4.45604C77.0738 4.39891 78.3021 4.34178 79.7017 4.34178C82.9294 4.34178 85.1287 6.16984 85.1002 9.31183C85.1002 12.4538 82.9294 14.3961 79.9302 14.3961C78.4449 14.3961 77.0738 14.339 75.9884 14.2819V4.45604ZM78.4449 12.1111C78.959 12.1396 79.5017 12.1396 79.9873 12.1396C81.4155 12.1396 82.5295 11.0542 82.558 9.2547C82.558 7.51233 81.4155 6.51261 79.7874 6.51261C79.3589 6.51261 78.9019 6.51261 78.4449 6.54117V12.1111ZM106.323 4.85592C105.295 4.4846 103.666 4.1704 102.295 4.1704C99.8104 4.1704 98.2394 5.3415 98.2394 7.31238C98.2394 9.05476 99.2677 9.76885 101.496 10.2259C101.61 10.2544 101.753 10.283 101.867 10.3116C102.952 10.5401 103.866 10.7114 103.866 11.4255C103.866 11.9968 103.324 12.2824 102.267 12.2824C101.381 12.2539 100.096 12.0254 98.4965 11.4255L97.9538 13.5964C99.4962 14.1676 101.124 14.4533 102.381 14.4533C104.895 14.4533 106.551 13.3678 106.551 11.2541C106.551 9.34039 105.18 8.68343 103.152 8.25498C103.067 8.22642 102.952 8.22642 102.867 8.19785C101.638 7.94078 100.924 7.79796 100.924 7.16957C100.924 6.54117 101.439 6.2841 102.324 6.2841C103.181 6.2841 104.409 6.51261 105.809 6.94106L106.323 4.85592ZM113.407 10.9114H111.864V14.2248H109.408V4.45604H111.864V8.51205H112.35L115.606 4.45604H118.577L114.978 8.9405L118.834 14.2248H115.835L113.407 10.9114ZM55.4227 8.28354V6.51261H60.4785V4.42747H52.9663V14.1962H60.4785V12.1111H55.4227V10.3687H59.6501V8.28354H55.4227ZM90.3559 6.51261V8.28354H94.5833V10.3687H90.3559V12.1396H95.4116V14.2248H87.8994V4.45604H95.4116V6.54117H90.3559V6.51261Z" fill="#0B0C0D"/>
</g>
<defs>
<clipPath id="clip0_268_82">
<rect width="120" height="18.4615" fill="white" transform="translate(0 0.0384521)"/>
</clipPath>
</defs>
</svg>
