<svg width="85" height="17" viewBox="0 0 85 17" fill="none" xmlns="http://www.w3.org/2000/svg">
<g clip-path="url(#clip0_291_5135)">
<mask id="mask0_291_5135" style="mask-type:luminance" maskUnits="userSpaceOnUse" x="0" y="0" width="85" height="17">
<path d="M84.0732 0.503906H0.913574V16.2074H84.0732V0.503906Z" fill="white"/>
</mask>
<g mask="url(#mask0_291_5135)">
<path d="M72.5795 3.29357C71.8079 3.29357 71.1847 2.6661 71.1847 1.89873C71.1847 1.13137 71.8122 0.503906 72.5795 0.503906C73.3468 0.503906 73.9743 1.13137 73.9743 1.89873C73.9743 2.6661 73.3468 3.29357 72.5795 3.29357ZM54.7224 15.9148V9.41129C54.7224 7.58402 53.6371 6.35456 52.0216 6.35456C50.237 6.35456 48.9396 7.81297 48.9396 9.8183V15.9191H46.8452V4.66719H48.9396V6.62588L49.0243 6.64284C49.6093 5.27344 50.9237 4.48913 52.6279 4.48913C55.1336 4.48913 56.8125 6.29944 56.8125 8.99157V15.9233H54.718L54.7224 15.9148ZM71.5324 4.66294H73.6266V15.9148H71.5324V4.66719V4.66294ZM63.6975 6.30791C61.599 6.30791 60.1872 7.90623 60.1872 10.2889C60.1872 12.6715 61.599 14.2699 63.6975 14.2699C65.7962 14.2699 67.2291 12.6715 67.2291 10.2889C67.2291 7.90623 65.8089 6.30791 63.6975 6.30791ZM63.4518 16.0929C60.1701 16.0929 58.0506 13.8162 58.0506 10.2889C58.0506 6.76156 60.1618 4.48489 63.4261 4.48489C64.9356 4.48489 66.3006 5.18443 66.9875 6.30791L67.0681 6.43935V0.800678H69.1623V15.9191H67.0681V14.1172L66.9875 14.2529C66.3133 15.3722 64.9272 16.0971 63.4475 16.0971M39.7778 10.6747C38.26 10.6747 37.2805 11.459 37.2805 12.6758C37.2805 13.7399 38.1498 14.4522 39.4385 14.4522C41.5075 14.4522 42.7454 13.1591 42.7454 10.9884V10.6747H39.7778ZM39.0146 16.0971C36.7381 16.0971 35.2118 14.7405 35.2118 12.7224C35.2118 10.573 36.8863 9.23324 39.5784 9.23324H41.9399C42.4529 9.23324 42.7497 8.97038 42.7497 8.51251C42.7497 7.05407 41.6812 6.15104 39.9602 6.15104C38.4594 6.15104 37.2256 7.088 37.1279 8.28781H35.1904C35.3982 6.07899 37.4207 4.48489 40.0238 4.48489C42.9023 4.48489 44.8398 6.15953 44.8398 8.64817V15.9148H42.7454V14.113L42.6607 14.0961C42.1222 15.3086 40.6894 16.0971 39.0105 16.0971M27.5804 16.1395C25.4861 16.1395 23.6927 15.4781 22.3912 14.2275C20.9836 12.875 20.2417 10.874 20.2417 8.4489C20.2417 6.02387 20.9921 4.02701 22.4081 2.67034C23.7139 1.41966 25.4988 0.758282 27.5762 0.758282C31.0781 0.758282 33.6304 2.72545 34.0714 5.76524H31.6209C31.3536 4.0143 29.8698 3.00951 27.555 3.00951C24.3456 3.00951 22.6498 4.89189 22.6498 8.45315C22.6498 12.0144 24.299 13.7526 27.555 13.7526C30.0054 13.7526 31.4258 12.8496 31.6674 11.1411H34.0289C33.6812 14.1809 31.1501 16.148 27.5762 16.148M79.8081 16.2116C77.1328 16.2116 75.3777 14.7277 75.2167 12.3409H77.2643C77.3998 13.6424 78.3241 14.3886 79.8081 14.3886C81.046 14.3886 81.9448 13.7442 81.9448 12.8581C81.9448 11.5268 80.7153 11.3276 79.2908 11.0944C77.5186 10.8061 75.5092 10.4754 75.5092 7.77482C75.5092 5.85429 77.1666 4.51032 79.5368 4.51032C82.0763 4.51032 83.8568 5.93908 83.9669 8.06735H81.9193C81.7667 6.81668 80.5754 6.24433 79.5324 6.24433C78.3622 6.24433 77.5738 6.83361 77.5738 7.70699C77.5738 8.90255 78.7353 9.06789 80.0836 9.26292C81.8514 9.5173 84.0519 9.83526 84.0519 12.8157C84.0519 14.8804 82.3814 16.2158 79.7995 16.2158" fill="#0B0C0D"/>
<path d="M7.25178 1.06356L1.15099 7.16433C0.998366 7.31695 0.913574 7.52047 0.913574 7.73245V15.368C0.913574 15.6138 1.11284 15.8174 1.36297 15.8174H8.99848C9.21471 15.8174 9.4182 15.7326 9.56658 15.5799L15.6674 9.47915C15.82 9.32653 15.9048 9.12304 15.9048 8.91105V1.2713C15.9048 1.0254 15.7055 0.821899 15.4554 0.821899H7.81988C7.60789 0.821899 7.40015 0.906691 7.25178 1.05932" fill="#0B0C0D"/>
</g>
</g>
<defs>
<clipPath id="clip0_291_5135">
<rect width="83.3333" height="15.9632" fill="white" transform="translate(0.913574 0.503906)"/>
</clipPath>
</defs>
</svg>
