<svg width="120" height="28" viewBox="0 0 120 28" fill="none" xmlns="http://www.w3.org/2000/svg">
<g clip-path="url(#clip0_273_3743)">
<mask id="mask0_273_3743" style="mask-type:luminance" maskUnits="userSpaceOnUse" x="9" y="2" width="18" height="23">
<path d="M22.92 2.37925C22.89 2.39425 22.875 2.40925 22.845 2.43925L20.31 4.89925C20.28 4.92925 20.25 4.97425 20.22 5.01925C20.085 5.30425 20.43 5.52925 20.43 5.52925C22.47 6.96925 21.6 9.09925 21.6 9.09925C20.97 10.4792 19.95 10.9742 18.795 11.0492C18.78 11.0492 18.78 11.0492 18.765 11.0492H14.88C14.88 11.0492 13.755 11.0942 13.05 11.8593L13.035 11.8742L10.02 14.7843L10.005 14.7993C9.91504 14.8743 9.25504 15.4743 9.16504 16.3293C9.16504 16.3443 9.16504 16.3593 9.16504 16.3743V24.0393C9.16504 24.0393 9.18004 24.3543 9.54004 24.3243C9.54004 24.3243 9.64504 24.3243 9.84004 24.1293L12.96 21.1443C12.975 21.1293 12.975 21.1293 12.99 21.1143C13.11 21.0093 13.965 20.3193 13.965 19.4193V16.8093V16.4193C13.965 16.4193 13.98 15.7293 14.7 15.6693C14.715 15.6693 14.73 15.6693 14.745 15.6693H17.46C24.87 15.4593 26.7 10.6743 26.61 7.73425C26.52 4.91425 24.615 2.96425 24.45 2.81425L24.435 2.79925C24.36 2.72425 23.91 2.22925 23.37 2.22925C23.22 2.24425 23.07 2.27425 22.92 2.37925Z" fill="white"/>
</mask>
<g mask="url(#mask0_273_3743)">
<path d="M-1.91992 13.2993L17.9401 -6.50073L37.8001 13.2993L17.9401 33.0993L-1.91992 13.2993Z" fill="#0B0C0D"/>
</g>
<mask id="mask1_273_3743" style="mask-type:luminance" maskUnits="userSpaceOnUse" x="0" y="0" width="23" height="14">
<path d="M11.25 0.339219H5.26504C4.36504 0.384219 3.72004 0.939219 3.72004 0.939219L0.135039 4.38922C-0.254961 4.91422 0.330039 4.95922 0.330039 4.95922H8.37004C9.24004 5.03422 9.16504 5.79922 9.16504 5.79922V13.4642C9.18004 13.7042 9.34504 13.7042 9.52504 13.6592C9.69004 13.6142 9.84004 13.5392 9.96004 13.4192L12.3 11.1692L13.665 9.83422C14.04 9.47422 13.995 8.79922 13.995 8.79922V7.17922V5.67922C14.085 4.92922 14.91 4.95922 14.91 4.95922H17.865C18.72 4.94422 19.395 4.35922 19.395 4.35922L19.8 3.95422L21.99 1.82422C21.99 1.82422 22.635 1.35922 21.795 1.04422C21.795 1.04422 20.535 0.384219 18.45 0.324219H11.25V0.339219Z" fill="white"/>
</mask>
<g mask="url(#mask1_273_3743)">
<path d="M-6.95996 7.02921L11.175 -11.0608L29.325 7.02921L11.175 25.1192L-6.95996 7.02921Z" fill="#0B0C0D"/>
</g>
<mask id="mask2_273_3743" style="mask-type:luminance" maskUnits="userSpaceOnUse" x="33" y="0" width="3" height="25">
<path d="M33.7051 1.29922V23.3642C33.7051 23.9042 34.1401 24.3392 34.6801 24.3392C35.2201 24.3392 35.6551 23.9042 35.6551 23.3642V1.29922C35.6551 0.759219 35.2201 0.324219 34.6801 0.324219C34.1401 0.324219 33.7051 0.759219 33.7051 1.29922Z" fill="white"/>
</mask>
<g mask="url(#mask2_273_3743)">
<path d="M21.6602 12.3243L34.6802 -0.635742L47.6852 12.3243L34.6802 25.2993L21.6602 12.3243Z" fill="#0B0C0D"/>
</g>
<mask id="mask3_273_3743" style="mask-type:luminance" maskUnits="userSpaceOnUse" x="45" y="0" width="33" height="11">
<path d="M55.0803 8.87421C54.7953 8.55921 54.6453 8.07921 54.6303 7.46421L54.6153 6.89421L54.6303 6.32421C54.6453 5.69421 54.7953 5.22921 55.0803 4.89921C55.3653 4.56921 55.7703 4.4042 56.2803 4.4042C56.7903 4.4042 57.1803 4.56921 57.4653 4.89921C57.7503 5.22921 57.9003 5.69421 57.9153 6.32421C57.9303 6.41421 57.9303 6.60921 57.9303 6.89421C57.9303 7.17921 57.9303 7.35921 57.9153 7.46421C57.9003 8.09421 57.7503 8.55921 57.4653 8.87421C57.1803 9.18921 56.7903 9.35421 56.2653 9.35421C55.7553 9.35421 55.3653 9.18921 55.0803 8.87421ZM53.6253 3.8192C52.9953 4.4042 52.6503 5.21421 52.6053 6.23421L52.5903 6.87921L52.6053 7.52421C52.6503 8.55921 52.9953 9.36921 53.6103 9.95421C54.2403 10.5392 55.1253 10.8242 56.2803 10.8242C57.4203 10.8242 58.3053 10.5392 58.9353 9.95421C59.5653 9.36921 59.8953 8.55921 59.9403 7.52421C59.9553 7.40421 59.9553 7.19421 59.9553 6.87921C59.9553 6.56421 59.9553 6.35421 59.9403 6.23421C59.8953 5.21421 59.5503 4.4042 58.9203 3.8192C58.2903 3.2342 57.4053 2.9342 56.2803 2.9342C55.1403 2.9342 54.2553 3.2342 53.6253 3.8192ZM69.0303 9.17421C68.7753 9.00921 68.6403 8.76921 68.6403 8.45421C68.6403 7.88421 69.1953 7.50921 70.3203 7.32921L71.7903 7.08921V7.37421C71.7903 8.03421 71.6253 8.54421 71.2803 8.88921C70.9353 9.23421 70.5003 9.41421 69.9603 9.41421C69.6003 9.42921 69.2853 9.33921 69.0303 9.17421ZM68.6703 3.2792C68.1903 3.5042 67.8303 3.7742 67.6053 4.08921C67.3803 4.3892 67.2603 4.67421 67.2453 4.91421C67.2453 5.00421 67.2753 5.0942 67.3353 5.15421C67.3953 5.21421 67.4703 5.24421 67.5603 5.24421H68.7003C68.8053 5.24421 68.8803 5.18421 68.9253 5.06421C68.9703 5.01921 69.0453 4.94421 69.1653 4.82421C69.2853 4.70421 69.4503 4.58421 69.6453 4.46421C69.8403 4.34421 70.0953 4.2842 70.4253 4.2842C70.8903 4.2842 71.2353 4.3892 71.4453 4.59921C71.6553 4.80921 71.7603 5.12421 71.7603 5.54421V5.84421L69.7503 6.12921C68.8203 6.27921 68.0703 6.54921 67.5453 6.95421C67.0053 7.35921 66.7353 7.89921 66.7353 8.55921C66.7353 8.96421 66.8553 9.33921 67.0953 9.68421C67.3353 10.0292 67.6653 10.2992 68.0703 10.4942C68.4903 10.6892 68.9403 10.7942 69.4353 10.7942C70.0203 10.7942 70.5153 10.6892 70.9053 10.4942C71.2953 10.2992 71.5953 10.0442 71.8203 9.72921V10.2992C71.8203 10.4042 71.8503 10.4792 71.9253 10.5542C72.0003 10.6292 72.0753 10.6592 72.1803 10.6592H73.3953C73.5003 10.6592 73.5903 10.6292 73.6503 10.5542C73.7103 10.4792 73.7403 10.4042 73.7403 10.2992V5.73921C73.7403 4.89921 73.4703 4.22421 72.9453 3.71421C72.4203 3.2042 71.5803 2.9342 70.4253 2.9342C69.7353 2.9342 69.1503 3.0542 68.6703 3.2792ZM45.3753 0.459204C45.2703 0.459204 45.1803 0.489204 45.1203 0.564204C45.0603 0.639204 45.0303 0.714204 45.0303 0.834204V1.9292C45.0303 2.0342 45.0603 2.1242 45.1353 2.1992C45.2103 2.2742 45.2853 2.3042 45.3903 2.3042H48.1053V10.3592C48.1053 10.4642 48.1353 10.5392 48.2103 10.6142C48.2853 10.6892 48.3603 10.7192 48.4653 10.7192H49.8453C49.9503 10.7192 50.0403 10.6892 50.1003 10.6142C50.1603 10.5392 50.1903 10.4642 50.1903 10.3592V2.2742H52.8903C52.9953 2.2742 53.0853 2.2442 53.1603 2.1692C53.2353 2.0942 53.2653 2.0192 53.2653 1.8992V0.819204C53.2653 0.714204 53.2353 0.624204 53.1603 0.549204C53.0853 0.474204 53.0103 0.444204 52.8903 0.444204H45.3753V0.459204ZM62.3553 0.309204C62.2503 0.309204 62.1753 0.339204 62.1003 0.399204C62.0253 0.459204 61.9953 0.549204 61.9953 0.654204V3.0842H60.8403C60.7353 3.0842 60.6603 3.1142 60.5853 3.1892C60.5103 3.2642 60.4803 3.3392 60.4803 3.4442V4.29921C60.4803 4.3892 60.5103 4.47921 60.5853 4.5542C60.6603 4.62921 60.7353 4.6592 60.8403 4.6592H61.9953V7.95921C61.9953 8.85921 62.2203 9.53421 62.6703 9.99921C63.1203 10.4642 63.7953 10.6892 64.6803 10.6892H65.8803C65.9853 10.6892 66.0753 10.6592 66.1353 10.5842C66.1953 10.5092 66.2253 10.4342 66.2253 10.3292V9.41421C66.2253 9.30921 66.1953 9.21921 66.1353 9.15921C66.0753 9.09921 65.9853 9.06921 65.8803 9.06921H64.8603C64.5303 9.06921 64.2903 8.96421 64.1403 8.75421C63.9903 8.54421 63.9153 8.22921 63.9153 7.80921V4.64421H65.7453C65.8353 4.64421 65.9253 4.61421 66.0003 4.53921C66.0753 4.46421 66.1053 4.3892 66.1053 4.2842V3.4292C66.1053 3.3392 66.0753 3.2492 66.0003 3.1742C65.9253 3.0992 65.8503 3.0692 65.7453 3.0692H63.9153V0.654204C63.9153 0.549204 63.8853 0.459204 63.8253 0.399204C63.7653 0.339204 63.6753 0.309204 63.5703 0.309204H62.3553V0.309204ZM75.7053 0.309204C75.6003 0.309204 75.5253 0.339204 75.4503 0.399204C75.3753 0.459204 75.3453 0.549204 75.3453 0.654204V10.3292C75.3453 10.4342 75.3753 10.5092 75.4503 10.5842C75.5253 10.6592 75.6003 10.6892 75.7053 10.6892H76.9353C77.0403 10.6892 77.1303 10.6592 77.1903 10.5842C77.2503 10.5092 77.2803 10.4342 77.2803 10.3292V0.654204C77.2803 0.549204 77.2503 0.459204 77.1903 0.399204C77.1303 0.339204 77.0403 0.309204 76.9353 0.309204H75.7053V0.309204Z" fill="white"/>
</mask>
<g mask="url(#mask3_273_3743)">
<path d="M39.75 5.57425L61.155 -15.7708L82.56 5.57425L61.155 26.9043L39.75 5.57425Z" fill="#0B0C0D"/>
</g>
<mask id="mask4_273_3743" style="mask-type:luminance" maskUnits="userSpaceOnUse" x="45" y="13" width="75" height="15">
<path d="M59.0548 16.6442C58.1398 16.6442 57.4348 16.9592 56.9398 17.6042V17.0042C56.9398 16.8992 56.9098 16.8092 56.8348 16.7342C56.7598 16.6592 56.6848 16.6292 56.5648 16.6292H55.3648C55.2598 16.6292 55.1848 16.6592 55.1098 16.7342C55.0348 16.8092 55.0048 16.8842 55.0048 17.0042V23.8892C55.0048 23.9792 55.0348 24.0692 55.1098 24.1442C55.1848 24.2192 55.2598 24.2492 55.3648 24.2492H56.6698C56.7598 24.2492 56.8498 24.2192 56.9248 24.1442C56.9998 24.0692 57.0298 23.9942 57.0298 23.8892V19.8842C57.0298 19.4192 57.1648 19.0592 57.4198 18.8042C57.6898 18.5342 58.0498 18.4142 58.4998 18.4142H59.6548C59.7598 18.4142 59.8498 18.3842 59.9098 18.3092C59.9698 18.2342 59.9998 18.1592 59.9998 18.0542V16.9892C59.9998 16.8842 59.9698 16.7942 59.9098 16.7342C59.8498 16.6742 59.7598 16.6442 59.6548 16.6442H59.0548ZM100.815 16.6442C100.71 16.6442 100.635 16.6742 100.56 16.7342C100.485 16.7942 100.455 16.8842 100.455 16.9892V23.8892C100.455 23.9792 100.485 24.0692 100.56 24.1442C100.635 24.2192 100.71 24.2492 100.815 24.2492H102.06C102.15 24.2492 102.24 24.2192 102.315 24.1442C102.39 24.0692 102.42 23.9942 102.42 23.8892V16.9892C102.42 16.8992 102.39 16.8092 102.315 16.7342C102.24 16.6592 102.165 16.6292 102.06 16.6292H100.815V16.6442ZM62.9548 22.4342C62.6698 22.1192 62.5198 21.6392 62.5048 21.0242L62.4898 20.4542L62.5048 19.8842C62.5198 19.2542 62.6698 18.7892 62.9548 18.4592C63.2398 18.1292 63.6448 17.9642 64.1548 17.9642C64.6648 17.9642 65.0548 18.1292 65.3398 18.4592C65.6248 18.7892 65.7748 19.2542 65.7898 19.8842C65.8048 19.9742 65.8048 20.1692 65.8048 20.4542C65.8048 20.7392 65.8048 20.9192 65.7898 21.0242C65.7748 21.6542 65.6248 22.1192 65.3398 22.4342C65.0548 22.7492 64.6648 22.9142 64.1398 22.9142C63.6448 22.9142 63.2398 22.7492 62.9548 22.4342ZM61.5148 17.3942C60.8848 17.9792 60.5398 18.7892 60.4948 19.8092L60.4798 20.4542L60.4948 21.0992C60.5398 22.1342 60.8848 22.9442 61.4998 23.5292C62.1298 24.1142 63.0148 24.3992 64.1698 24.3992C65.3098 24.3992 66.1948 24.1142 66.8248 23.5292C67.4548 22.9442 67.7848 22.1342 67.8298 21.0992C67.8448 20.9792 67.8448 20.7692 67.8448 20.4542C67.8448 20.1392 67.8448 19.9292 67.8298 19.8092C67.7848 18.7892 67.4398 17.9792 66.8098 17.3942C66.1798 16.8092 65.2948 16.5092 64.1698 16.5092C63.0298 16.5092 62.1448 16.7942 61.5148 17.3942ZM69.8998 17.3942C69.2548 17.9942 68.9248 18.8042 68.8798 19.8692L68.8648 20.4542L68.8798 21.0392C68.9248 22.0892 69.2548 22.9142 69.8998 23.5142C70.5448 24.1142 71.3998 24.3992 72.4648 24.3992C73.2598 24.3992 73.9198 24.2642 74.4448 23.9792C74.9698 23.6942 75.3598 23.3642 75.6148 22.9592C75.8698 22.5692 76.0048 22.1942 76.0198 21.8492C76.0348 21.7592 76.0048 21.6692 75.9298 21.5942C75.8548 21.5192 75.7648 21.4892 75.6748 21.4892H74.3698C74.2648 21.4892 74.1748 21.5192 74.1298 21.5642C74.0698 21.6092 74.0248 21.6842 73.9948 21.8042C73.8448 22.1792 73.6648 22.4492 73.4248 22.6142C73.1848 22.7792 72.8848 22.8542 72.4948 22.8542C71.4748 22.8542 70.9348 22.2242 70.8898 20.9492L70.8748 20.4692L70.8898 19.9292C70.9048 19.2842 71.0548 18.8042 71.3398 18.5042C71.6248 18.1892 71.9998 18.0392 72.5098 18.0392C72.8848 18.0392 73.1848 18.1292 73.4248 18.2942C73.6648 18.4592 73.8598 18.7292 74.0098 19.1042C74.0548 19.2242 74.1148 19.2992 74.1598 19.3442C74.2048 19.3892 74.2798 19.4042 74.3998 19.4042H75.7048C75.8098 19.4042 75.8848 19.3742 75.9598 19.2992C76.0348 19.2242 76.0648 19.1492 76.0498 19.0442C76.0348 18.6842 75.8848 18.3092 75.6298 17.9192C75.3748 17.5292 74.9698 17.1842 74.4448 16.9142C73.9198 16.6442 73.2598 16.5092 72.4948 16.5092C71.3848 16.5092 70.5298 16.8092 69.8998 17.3942ZM78.9448 19.7492C78.9448 19.1792 79.0798 18.7142 79.3648 18.3692C79.6498 18.0242 80.0398 17.8442 80.5348 17.8442C81.0298 17.8442 81.4198 18.0242 81.7198 18.3692C82.0048 18.7142 82.1548 19.1792 82.1548 19.7492V19.7792H78.9448V19.7492ZM77.8798 17.5592C77.2348 18.2642 76.9198 19.2242 76.9198 20.4392L76.9348 20.7992C76.9798 21.9542 77.3098 22.8392 77.9548 23.4542C78.5998 24.0842 79.4548 24.3842 80.5498 24.3842C81.2398 24.3842 81.8398 24.2642 82.3498 24.0392C82.8598 23.7992 83.2648 23.5292 83.5498 23.2142C83.8348 22.8992 83.9698 22.6292 83.9698 22.3892C83.9698 22.2992 83.9398 22.2392 83.8798 22.1792C83.8198 22.1342 83.7448 22.1042 83.6548 22.1042H82.3498C82.2298 22.1042 82.1548 22.1192 82.0948 22.1342C82.0498 22.1642 81.9748 22.2242 81.8848 22.3292C81.5398 22.7792 81.0748 23.0042 80.5198 23.0042C80.0248 23.0042 79.6498 22.8242 79.3648 22.4642C79.0798 22.1042 78.9448 21.6542 78.9148 21.1142V20.9942H83.7748C83.8798 20.9942 83.9698 20.9642 84.0448 20.8892C84.1198 20.8142 84.1498 20.7392 84.1498 20.6342V20.3342C84.1498 19.1642 83.8348 18.2342 83.2048 17.5292C82.5748 16.8242 81.6748 16.4792 80.5198 16.4792C79.4098 16.5092 78.5248 16.8542 77.8798 17.5592ZM86.5948 16.8392C86.1298 17.0642 85.7848 17.3342 85.5448 17.6792C85.3048 18.0242 85.1998 18.3992 85.1998 18.7892C85.1998 19.3892 85.3948 19.8542 85.7998 20.2142C86.1898 20.5742 86.8048 20.8442 87.6448 21.0242C88.2148 21.1442 88.6498 21.2642 88.9348 21.3692C89.2198 21.4742 89.4298 21.5792 89.5348 21.6992C89.6398 21.8192 89.6998 21.9842 89.6998 22.1792C89.6998 22.4642 89.5798 22.6742 89.3398 22.8242C89.0998 22.9742 88.7848 23.0492 88.3948 23.0492C88.1248 23.0492 87.8848 23.0042 87.6748 22.9292C87.4498 22.8392 87.2548 22.7342 87.0898 22.5842C86.9248 22.4342 86.8048 22.3442 86.7598 22.3142C86.6998 22.2392 86.6398 22.1942 86.5498 22.1942H85.3498C85.2598 22.1942 85.1848 22.2242 85.1248 22.2842C85.0648 22.3442 85.0348 22.4192 85.0348 22.5242C85.0348 22.7342 85.1548 22.9892 85.3948 23.2892C85.6348 23.5892 86.0098 23.8442 86.5048 24.0692C86.9998 24.2942 87.6298 24.3992 88.3648 24.3992C89.4448 24.3992 90.2698 24.1892 90.8698 23.7542C91.4698 23.3192 91.7698 22.7642 91.7698 22.0742C91.7698 20.8892 90.8848 20.1242 89.1298 19.7792C88.5598 19.6742 88.1398 19.5692 87.8548 19.4642C87.5698 19.3592 87.3898 19.2542 87.2848 19.1342C87.1948 19.0142 87.1498 18.8642 87.1498 18.6992C87.1498 18.4442 87.2548 18.2342 87.4498 18.0842C87.6448 17.9342 87.9298 17.8442 88.2898 17.8442C88.5598 17.8442 88.7848 17.8892 88.9648 17.9642C89.1448 18.0392 89.3248 18.1442 89.4748 18.2792C89.6248 18.4142 89.7298 18.5042 89.8048 18.5492C89.8648 18.6242 89.9398 18.6692 90.0598 18.6692H91.1548C91.2448 18.6692 91.3198 18.6392 91.3798 18.5792C91.4398 18.5192 91.4698 18.4442 91.4698 18.3542C91.4698 18.1292 91.3498 17.8742 91.0948 17.5742C90.8398 17.2892 90.4798 17.0342 89.9998 16.8242C89.5198 16.6142 88.9498 16.5092 88.2898 16.5092C87.6148 16.5092 87.0598 16.6142 86.5948 16.8392ZM94.1098 16.8392C93.6448 17.0642 93.2998 17.3342 93.0598 17.6792C92.8198 18.0242 92.7148 18.3992 92.7148 18.7892C92.7148 19.3892 92.9098 19.8542 93.3148 20.2142C93.7048 20.5742 94.3198 20.8442 95.1598 21.0242C95.7298 21.1442 96.1648 21.2642 96.4498 21.3692C96.7348 21.4742 96.9448 21.5792 97.0498 21.6992C97.1548 21.8192 97.2148 21.9842 97.2148 22.1792C97.2148 22.4642 97.0948 22.6742 96.8548 22.8242C96.6148 22.9742 96.2998 23.0492 95.9098 23.0492C95.6398 23.0492 95.3998 23.0042 95.1898 22.9292C94.9648 22.8392 94.7698 22.7342 94.6048 22.5842C94.4398 22.4342 94.3198 22.3442 94.2748 22.3142C94.2148 22.2392 94.1548 22.1942 94.0648 22.1942H92.8648C92.7748 22.1942 92.6998 22.2242 92.6398 22.2842C92.5798 22.3442 92.5498 22.4192 92.5498 22.5242C92.5498 22.7342 92.6698 22.9892 92.9098 23.2892C93.1498 23.5892 93.5248 23.8442 94.0198 24.0692C94.5148 24.2942 95.1448 24.3992 95.8798 24.3992C96.9598 24.3992 97.7848 24.1892 98.3848 23.7542C98.9848 23.3192 99.2848 22.7642 99.2848 22.0742C99.2848 20.8892 98.3998 20.1242 96.6448 19.7792C96.0748 19.6742 95.6548 19.5692 95.3698 19.4642C95.0848 19.3592 94.9048 19.2542 94.7998 19.1342C94.7098 19.0142 94.6648 18.8642 94.6648 18.6992C94.6648 18.4442 94.7548 18.2342 94.9648 18.0842C95.1598 17.9342 95.4448 17.8442 95.8048 17.8442C96.0748 17.8442 96.2998 17.8892 96.4798 17.9642C96.6598 18.0392 96.8398 18.1442 96.9898 18.2792C97.1398 18.4142 97.2448 18.5042 97.3198 18.5492C97.3798 18.6242 97.4548 18.6692 97.5748 18.6692H98.6698C98.7598 18.6692 98.8348 18.6392 98.8948 18.5792C98.9548 18.5192 98.9848 18.4442 98.9848 18.3542C98.9848 18.1292 98.8648 17.8742 98.6098 17.5742C98.3548 17.2892 97.9948 17.0342 97.5148 16.8242C97.0348 16.6142 96.4648 16.5092 95.8048 16.5092C95.1298 16.5092 94.5748 16.6142 94.1098 16.8392ZM105.96 17.6042V17.0042C105.96 16.8992 105.93 16.8092 105.87 16.7492C105.81 16.6892 105.72 16.6592 105.615 16.6592H104.4C104.295 16.6592 104.22 16.6892 104.145 16.7492C104.07 16.8092 104.04 16.8992 104.04 17.0042V23.9042C104.04 23.9942 104.07 24.0842 104.145 24.1592C104.22 24.2342 104.295 24.2642 104.4 24.2642H105.705C105.81 24.2642 105.9 24.2342 105.96 24.1592C106.02 24.0842 106.05 24.0092 106.05 23.9042V19.8842C106.05 19.3292 106.2 18.8942 106.5 18.5642C106.8 18.2492 107.205 18.0842 107.7 18.0842C108.21 18.0842 108.615 18.2492 108.9 18.5642C109.185 18.8792 109.32 19.3142 109.32 19.8842V23.9042C109.32 23.9942 109.35 24.0842 109.425 24.1592C109.5 24.2342 109.575 24.2642 109.68 24.2642H111C111.105 24.2642 111.195 24.2342 111.255 24.1592C111.315 24.0842 111.345 24.0092 111.345 23.9042V19.7942C111.345 18.7742 111.075 17.9642 110.55 17.3792C110.025 16.7942 109.305 16.5092 108.405 16.5092C107.385 16.5092 106.56 16.8692 105.96 17.6042ZM114.615 20.3642L114.63 20.0192C114.69 18.7292 115.245 18.0842 116.295 18.0842C116.835 18.0842 117.255 18.2642 117.525 18.6092C117.795 18.9542 117.945 19.3892 117.975 19.8992C117.99 19.9742 117.99 20.1392 117.99 20.3642C117.99 20.6042 117.99 20.7542 117.975 20.8292C117.945 21.3392 117.795 21.7592 117.525 22.1192C117.255 22.4642 116.835 22.6442 116.295 22.6442C115.17 22.6442 114.615 21.8792 114.615 20.3642ZM113.445 17.4542C112.92 18.0842 112.65 18.9242 112.605 19.9592L112.59 20.3492L112.605 20.7392C112.65 21.8042 112.92 22.6442 113.43 23.2442C113.94 23.8592 114.705 24.1592 115.725 24.1592C116.685 24.1592 117.435 23.8442 117.96 23.2292V24.2192C117.96 24.8642 117.825 25.3142 117.555 25.5692C117.285 25.8242 116.85 25.9592 116.265 25.9592C115.815 25.9592 115.485 25.8692 115.275 25.6892C115.065 25.5092 114.9 25.2992 114.795 25.0442C114.75 24.9242 114.705 24.8492 114.645 24.8042C114.585 24.7592 114.51 24.7442 114.42 24.7442H113.115C113.01 24.7442 112.935 24.7742 112.86 24.8342C112.785 24.8942 112.755 24.9842 112.755 25.0742C112.755 25.3442 112.86 25.6592 113.085 26.0192C113.31 26.3942 113.685 26.7242 114.225 27.0092C114.765 27.2942 115.47 27.4442 116.34 27.4442C117.555 27.4442 118.47 27.1442 119.085 26.5592C119.685 25.9592 120 25.1342 120 24.0542L119.985 17.0192C119.985 16.9142 119.955 16.8242 119.88 16.7492C119.805 16.6742 119.73 16.6442 119.625 16.6442H118.425C118.32 16.6442 118.245 16.6742 118.17 16.7492C118.095 16.8242 118.065 16.8992 118.065 17.0192V17.5892C117.81 17.2592 117.495 16.9892 117.105 16.7942C116.715 16.5992 116.265 16.5092 115.74 16.5092C114.735 16.5092 113.97 16.8242 113.445 17.4542ZM47.9248 15.6542H50.0398C50.6248 15.6542 51.0598 15.7892 51.3448 16.0742C51.6298 16.3592 51.7798 16.7492 51.7798 17.2592C51.7798 17.7692 51.6298 18.1742 51.3298 18.4292C51.0298 18.6992 50.5948 18.8342 50.0398 18.8342H47.9248V15.6542ZM46.1848 14.0192C46.0798 14.0192 45.9898 14.0491 45.9298 14.1241C45.8698 14.1991 45.8398 14.2742 45.8398 14.3942V23.9042C45.8398 23.9942 45.8698 24.0842 45.9448 24.1592C46.0198 24.2342 46.0948 24.2642 46.1998 24.2642H47.6098C47.7148 24.2642 47.8048 24.2342 47.8798 24.1742C47.9548 24.1142 47.9848 24.0242 47.9848 23.9192V20.4992H50.1448C51.3298 20.4992 52.2598 20.2292 52.9348 19.6892C53.6098 19.1492 53.9398 18.3542 53.9398 17.3042C53.9398 16.2392 53.6098 15.4292 52.9348 14.8742C52.2598 14.3191 51.3298 14.0491 50.1448 14.0491H46.1848V14.0192ZM100.755 13.6292C100.65 13.6292 100.575 13.6591 100.5 13.7341C100.425 13.8091 100.395 13.8842 100.395 14.0042V15.0692C100.395 15.1592 100.425 15.2492 100.5 15.3242C100.575 15.3992 100.65 15.4292 100.755 15.4292H102.105C102.195 15.4292 102.285 15.3992 102.36 15.3242C102.435 15.2492 102.465 15.1742 102.465 15.0692V14.0042C102.465 13.8992 102.435 13.8091 102.36 13.7341C102.285 13.6591 102.21 13.6292 102.09 13.6292H100.755Z" fill="white"/>
</mask>
<g mask="url(#mask4_273_3743)">
<path d="M38.8945 20.5442L82.9195 -23.3458L126.93 20.5442L82.9195 64.4342L38.8945 20.5442Z" fill="#0B0C0D"/>
</g>
</g>
<defs>
<clipPath id="clip0_273_3743">
<rect width="120" height="27.15" fill="white" transform="translate(0 0.309204)"/>
</clipPath>
</defs>
</svg>
