<svg width="120" height="21" viewBox="0 0 120 21" fill="none" xmlns="http://www.w3.org/2000/svg">
<g clip-path="url(#clip0_289_4956)">
<mask id="mask0_289_4956" style="mask-type:luminance" maskUnits="userSpaceOnUse" x="0" y="0" width="120" height="20">
<path d="M119.578 0.987549H0.422852V19.8326H119.578V0.987549Z" fill="white"/>
</mask>
<g mask="url(#mask0_289_4956)">
<path d="M0.901129 8.90516C1.28179 6.96378 2.99477 5.59338 5.43101 5.59338C8.24791 5.59338 10.4177 6.77344 10.4177 10.5801V17.6604H8.01951L7.71498 16.1377C6.87753 17.1655 5.77361 17.8507 4.06063 17.8507C2.04312 17.8507 0.444336 16.5945 0.444336 14.2344C0.444336 11.8743 2.53798 10.3516 5.50714 10.3516H7.48659V9.81874C7.48659 8.48642 6.49686 8.06769 5.39295 8.06769C4.55548 8.06769 3.71803 8.33416 3.33737 9.43812L0.901129 8.90516ZM4.74582 15.3764C6.07814 15.3764 7.48659 14.4628 7.48659 12.9402V12.7118H5.54521C4.28902 12.6737 3.5277 13.1686 3.5277 14.1964C3.5277 14.7674 3.94642 15.3764 4.74582 15.3764Z" fill="#0B0C0D"/>
<path d="M57.9255 8.90516C58.3062 6.96378 60.0192 5.59338 62.4554 5.59338C65.2723 5.59338 67.4421 6.77344 67.4421 10.5801V17.6604H65.044L64.7394 16.1377C63.9019 17.1655 62.798 17.8507 61.0851 17.8507C59.0675 17.8507 57.4688 16.5945 57.4688 14.2344C57.4688 11.8743 59.5624 10.3516 62.5316 10.3516H64.511V9.81874C64.511 8.48642 63.5213 8.06769 62.4174 8.06769C61.5799 8.06769 60.7425 8.33416 60.3618 9.43812L57.9255 8.90516ZM61.7702 15.3764C63.1026 15.3764 64.511 14.4628 64.511 12.9402V12.7118H62.5696C61.3135 12.7118 60.5522 13.1686 60.5522 14.2344C60.5522 14.7674 60.9709 15.3764 61.7702 15.3764Z" fill="#0B0C0D"/>
<path d="M70.1064 17.6984V5.78372H73.0376V7.72511C73.875 6.31665 75.2073 5.59338 76.5396 5.59338C77.0725 5.59338 77.4913 5.66952 77.9861 5.82178L77.4532 8.52448C77.1106 8.29609 76.7299 8.18189 76.2351 8.18189C74.5221 8.18189 73.0376 9.59031 73.0376 13.435V17.6604L70.1064 17.6984Z" fill="#0B0C0D"/>
<path d="M84.2287 5.59356C85.4466 5.59356 86.5891 6.20262 87.1215 6.84975V0.987549H90.053V17.6986H87.1215V16.4805C86.7792 17.0896 85.7136 17.889 84.2287 17.889C80.6505 17.889 78.8232 15.4147 78.8232 11.7603C78.8232 8.10593 80.6505 5.59356 84.2287 5.59356ZM84.6471 15.3766C86.1699 15.3766 87.3885 14.1204 87.3885 11.7603C87.3885 9.40022 86.1699 8.144 84.6471 8.144C83.1247 8.144 81.9066 9.40022 81.9066 11.7603C81.9066 14.1204 83.1247 15.3766 84.6471 15.3766Z" fill="#0B0C0D"/>
<path d="M100.634 7.4968L98.8835 9.09558C98.3502 8.37233 97.5508 8.0678 96.9035 8.0678C96.3331 8.0678 95.7998 8.41039 95.7998 9.05752C95.7998 9.59048 96.2181 9.9711 96.9415 10.1995C98.5784 10.8086 101.243 11.3034 101.243 13.8539C101.243 16.0237 99.606 17.8128 97.0176 17.8128C94.5432 17.8128 92.8683 16.0617 92.2979 14.6152L94.6193 13.359C95.0384 14.501 95.8379 15.3385 97.0176 15.3385C97.9311 15.3385 98.5024 14.9197 98.5024 14.0442C98.5024 13.0545 96.9795 12.8261 95.5336 12.217C94.239 11.6841 93.1353 10.8466 93.1353 9.01945C93.1353 7.19227 94.6193 5.55542 96.9415 5.55542C98.5024 5.55542 99.9111 6.35481 100.634 7.4968Z" fill="#0B0C0D"/>
<path d="M39.6532 5.78394L37.5595 13.9682L35.542 5.78394H32.8012L30.8218 13.9682L29.1468 9.20989L28.9565 9.78087L28.0049 12.8262L29.5275 17.6987H32.116L34.1716 10.0093L36.2272 17.6987H38.8157L42.6223 5.78394H39.6532Z" fill="#0B0C0D"/>
<path d="M53.8133 5.78394L51.6816 13.9682L49.6641 5.78394H46.9233L44.9438 13.9682L43.269 9.20989L43.0786 9.78087L42.127 12.8262L43.6496 17.6987H46.2381L48.2937 10.0093L50.3492 17.6987H52.9378L56.7444 5.78394H53.8133Z" fill="#0B0C0D"/>
<path d="M28.5 5.78394L24.6934 17.6606H22.1049L20.0493 9.97118L17.9938 17.6987H15.4053L11.5986 5.82201H14.5678L16.6995 13.9682L18.717 5.82201H21.4197L23.4372 13.9682L25.5689 5.82201L28.5 5.78394Z" fill="#0B0C0D"/>
<path d="M105.05 13.8542C106.192 13.8542 107.03 14.6917 107.03 15.8337C107.03 16.9757 106.192 17.8131 105.05 17.8131C103.909 17.8131 103.071 16.9757 103.071 15.8337C103.071 14.6917 103.947 13.8542 105.05 13.8542Z" fill="#0B0C0D"/>
</g>
</g>
<defs>
<clipPath id="clip0_289_4956">
<rect width="120" height="19.4366" fill="white" transform="translate(0 0.90332)"/>
</clipPath>
</defs>
</svg>
