<svg width="111" height="31" viewBox="0 0 111 31" fill="none" xmlns="http://www.w3.org/2000/svg">
<g clip-path="url(#clip0_273_3517)">
<mask id="mask0_273_3517" style="mask-type:luminance" maskUnits="userSpaceOnUse" x="0" y="1" width="111" height="29">
<path d="M110.343 1.38159H0.666504V29.5287H110.343V1.38159Z" fill="white"/>
</mask>
<g mask="url(#mask0_273_3517)">
<path d="M19.7773 20.877C18.3721 22.001 16.4048 22.8442 14.4375 22.8442C9.94084 22.8442 6.84939 19.4717 6.84939 14.975C6.84939 10.4784 9.94084 7.38695 14.4375 7.38695C16.4048 7.38695 18.3721 7.94902 19.7773 9.35421L20.6204 10.1973L25.1171 5.98174L23.9929 5.13863C21.362 2.79257 17.9624 1.49269 14.4375 1.48511C6.56835 1.48511 0.666504 7.38695 0.666504 15.2561C0.666504 23.1252 6.56835 29.0271 14.4375 29.0271C17.9624 29.0194 21.362 27.7196 23.9929 25.3735L25.1171 24.5304L20.6204 20.0337L19.7773 20.877Z" fill="#0B0C0D"/>
<path d="M14.1612 19.752C16.6446 19.752 18.6579 17.7389 18.6579 15.2555C18.6579 12.772 16.6446 10.7588 14.1612 10.7588C11.6778 10.7588 9.66455 12.772 9.66455 15.2555C9.66455 17.7389 11.6778 19.752 14.1612 19.752Z" fill="#0B0C0D"/>
<path d="M38.909 3.51271L40.6446 7.02612C40.658 7.05128 40.6773 7.07284 40.7007 7.08898C40.7242 7.10512 40.7513 7.11534 40.7795 7.11881L44.6551 7.68331C44.6868 7.69002 44.7161 7.70487 44.7401 7.72638C44.7643 7.74792 44.7825 7.77536 44.7925 7.80602C44.8028 7.83668 44.8048 7.86947 44.7985 7.90115C44.7922 7.93283 44.7775 7.9623 44.7563 7.98663L41.9507 10.7249C41.9289 10.7448 41.9129 10.7701 41.9041 10.7982C41.8951 10.8263 41.8937 10.8562 41.9001 10.885L42.5572 14.7439C42.5633 14.7769 42.5597 14.8111 42.547 14.8421C42.5342 14.8732 42.5128 14.9 42.4855 14.9194C42.4581 14.9389 42.4257 14.9501 42.3922 14.9519C42.3587 14.9536 42.3253 14.9458 42.2961 14.9292L38.8331 13.1093C38.8069 13.0967 38.7781 13.0901 38.7489 13.0901C38.7198 13.0901 38.691 13.0967 38.6646 13.1093L35.2018 14.9292C35.1726 14.9458 35.1392 14.9536 35.1057 14.9519C35.0722 14.9501 35.0397 14.9389 35.0124 14.9194C34.9849 14.9 34.9636 14.8732 34.951 14.8421C34.9384 14.8111 34.9347 14.7769 34.9407 14.7439L35.5978 10.885C35.6042 10.8562 35.6028 10.8263 35.594 10.7982C35.585 10.7701 35.569 10.7448 35.5472 10.7249L32.7416 7.98663C32.7204 7.9623 32.7057 7.93283 32.6994 7.90115C32.6931 7.86947 32.6951 7.83668 32.7052 7.80602C32.7156 7.77536 32.7336 7.74792 32.7576 7.72638C32.7817 7.70487 32.8111 7.69002 32.8427 7.68331L36.7184 7.11881C36.7468 7.11534 36.7737 7.10512 36.7972 7.08898C36.8207 7.07284 36.8399 7.05128 36.8531 7.02612L38.5889 3.51271C38.6032 3.48234 38.6258 3.45665 38.6542 3.43867C38.6825 3.42068 38.7154 3.41113 38.7489 3.41113C38.7825 3.41113 38.8154 3.42068 38.8437 3.43867C38.8721 3.45665 38.8947 3.48234 38.909 3.51271Z" fill="#0B0C0D"/>
<path d="M52.4974 3.42433L54.233 6.93776C54.2464 6.9629 54.2656 6.98447 54.2891 7.0006C54.3126 7.01675 54.3395 7.02697 54.3677 7.03043L58.2435 7.59493C58.2752 7.60164 58.3044 7.6165 58.3285 7.63802C58.3526 7.65954 58.3707 7.687 58.3809 7.71764C58.3912 7.7483 58.3932 7.78109 58.3868 7.81277C58.3805 7.84447 58.3659 7.87392 58.3447 7.89825L55.539 10.6365C55.5173 10.6565 55.5013 10.6817 55.4923 10.7098C55.4835 10.7379 55.4821 10.7678 55.4884 10.7966L56.1456 14.6555C56.1516 14.6886 56.1479 14.7226 56.1352 14.7537C56.1226 14.7849 56.1012 14.8117 56.0739 14.8311C56.0465 14.8505 56.0141 14.8618 55.9805 14.8634C55.9471 14.8653 55.9137 14.8574 55.8844 14.8408L52.4215 13.0209C52.3952 13.0083 52.3664 13.0017 52.3373 13.0017C52.3081 13.0017 52.2793 13.0083 52.253 13.0209L48.7902 14.8408C48.7608 14.8574 48.7276 14.8653 48.6941 14.8634C48.6604 14.8618 48.6281 14.8505 48.6008 14.8311C48.5733 14.8117 48.552 14.7849 48.5393 14.7537C48.5266 14.7226 48.523 14.6886 48.5291 14.6555L49.1862 10.7966C49.1924 10.7678 49.1911 10.7379 49.1822 10.7098C49.1734 10.6817 49.1572 10.6565 49.1356 10.6365L46.33 7.89825C46.3088 7.87392 46.2941 7.84447 46.2878 7.81277C46.2814 7.78109 46.2835 7.7483 46.2936 7.71764C46.3038 7.687 46.3219 7.65954 46.346 7.63802C46.3701 7.6165 46.3995 7.60164 46.431 7.59493L50.3068 7.03043C50.335 7.02697 50.3621 7.01675 50.3855 7.0006C50.4089 6.98447 50.4282 6.9629 50.4415 6.93776L52.1772 3.42433C52.1916 3.39396 52.2142 3.36828 52.2425 3.35029C52.2709 3.3323 52.3037 3.32275 52.3373 3.32275C52.3709 3.32275 52.4037 3.3323 52.432 3.35029C52.4603 3.36828 52.4831 3.39396 52.4974 3.42433Z" fill="#0B0C0D"/>
<path d="M66.0854 3.51271L67.8209 7.02612C67.8344 7.05128 67.8535 7.07284 67.8769 7.08898C67.9005 7.10512 67.9275 7.11534 67.9558 7.11881L71.8314 7.68331C71.8631 7.69002 71.8923 7.70487 71.9164 7.72638C71.9406 7.74792 71.9587 7.77536 71.9688 7.80602C71.979 7.83668 71.9811 7.86947 71.9748 7.90115C71.9684 7.93283 71.9538 7.9623 71.9326 7.98663L69.1269 10.7249C69.1052 10.7448 69.0891 10.7701 69.0803 10.7982C69.0714 10.8263 69.07 10.8562 69.0763 10.885L69.7335 14.7439C69.7396 14.7769 69.7359 14.8111 69.7233 14.8421C69.7105 14.8732 69.6891 14.9 69.6618 14.9194C69.6344 14.9389 69.6021 14.9501 69.5685 14.9519C69.535 14.9536 69.5016 14.9458 69.4723 14.9292L66.0094 13.1093C65.9833 13.0967 65.9544 13.0901 65.9252 13.0901C65.896 13.0901 65.8673 13.0967 65.8409 13.1093L62.3781 14.9292C62.3489 14.9458 62.3155 14.9536 62.282 14.9519C62.2484 14.9501 62.216 14.9389 62.1887 14.9194C62.1612 14.9 62.14 14.8732 62.1273 14.8421C62.1146 14.8111 62.111 14.7769 62.117 14.7439L62.7741 10.885C62.7805 10.8562 62.779 10.8263 62.7702 10.7982C62.7613 10.7701 62.7453 10.7448 62.7235 10.7249L59.9179 7.98663C59.8966 7.9623 59.882 7.93283 59.8757 7.90115C59.8693 7.86947 59.8714 7.83668 59.8815 7.80602C59.8919 7.77536 59.9098 7.74792 59.9339 7.72638C59.958 7.70487 59.9874 7.69002 60.0189 7.68331L63.8947 7.11881C63.923 7.11534 63.9499 7.10512 63.9735 7.08898C63.9969 7.07284 64.0162 7.05128 64.0294 7.02612L65.7652 3.51271C65.7794 3.48234 65.8021 3.45665 65.8304 3.43867C65.8588 3.42068 65.8916 3.41113 65.9252 3.41113C65.9588 3.41113 65.9917 3.42068 66.02 3.43867C66.0484 3.45665 66.071 3.48234 66.0854 3.51271Z" fill="#0B0C0D"/>
<path d="M79.6741 3.51271L81.4098 7.02612C81.4231 7.05128 81.4424 7.07284 81.4658 7.08898C81.4894 7.10512 81.5163 7.11534 81.5445 7.11881L85.4203 7.68331C85.452 7.69002 85.4812 7.70487 85.5053 7.72638C85.5293 7.74792 85.5475 7.77536 85.5577 7.80602C85.5679 7.83668 85.57 7.86947 85.5635 7.90115C85.5573 7.93283 85.5427 7.9623 85.5215 7.98663L82.7158 10.7249C82.6941 10.7448 82.678 10.7701 82.6691 10.7982C82.6603 10.8263 82.6589 10.8562 82.6652 10.885L83.3224 14.7439C83.3283 14.7769 83.3247 14.8111 83.312 14.8421C83.2993 14.8732 83.278 14.9 83.2507 14.9194C83.2232 14.9389 83.1909 14.9501 83.1572 14.9519C83.1238 14.9536 83.0905 14.9458 83.0612 14.9292L79.5983 13.1093C79.572 13.0967 79.5431 13.0901 79.514 13.0901C79.4849 13.0901 79.4561 13.0967 79.4298 13.1093L75.967 14.9292C75.9376 14.9458 75.9043 14.9536 75.8708 14.9519C75.8373 14.9501 75.8048 14.9389 75.7775 14.9194C75.7501 14.9 75.7287 14.8732 75.716 14.8421C75.7034 14.8111 75.6997 14.7769 75.7058 14.7439L76.363 10.885C76.3693 10.8562 76.3679 10.8263 76.359 10.7982C76.3502 10.7701 76.334 10.7448 76.3124 10.7249L73.5067 7.98663C73.4855 7.9623 73.4709 7.93283 73.4645 7.90115C73.4582 7.86947 73.4603 7.83668 73.4704 7.80602C73.4806 7.77536 73.4987 7.74792 73.5228 7.72638C73.5468 7.70487 73.5762 7.69002 73.6078 7.68331L77.4836 7.11881C77.5118 7.11534 77.5388 7.10512 77.5624 7.08898C77.5857 7.07284 77.6049 7.05128 77.6183 7.02612L79.3539 3.51271C79.3683 3.48234 79.391 3.45665 79.4193 3.43867C79.4476 3.42068 79.4805 3.41113 79.514 3.41113C79.5477 3.41113 79.5804 3.42068 79.6088 3.43867C79.6372 3.45665 79.6599 3.48234 79.6741 3.51271Z" fill="#0B0C0D"/>
<path d="M93.2621 3.51271L94.9977 7.02612C95.0111 7.05128 95.0303 7.07284 95.0538 7.08898C95.0772 7.10512 95.1043 7.11534 95.1325 7.11881L99.0083 7.68331C99.0402 7.69002 99.0695 7.70487 99.0937 7.72638C99.117 7.74792 99.1355 7.77536 99.1461 7.80602C99.1558 7.83668 99.1577 7.86947 99.1519 7.90115C99.1452 7.93283 99.1306 7.9623 99.1092 7.98663L96.3037 10.7249C96.2819 10.7448 96.2659 10.7701 96.2571 10.7982C96.2482 10.8263 96.2469 10.8562 96.2531 10.885L96.9102 14.7439C96.9163 14.7769 96.9127 14.8111 96.9 14.8421C96.8872 14.8732 96.866 14.9 96.8385 14.9194C96.8111 14.9389 96.7789 14.9501 96.7452 14.9519C96.7117 14.9536 96.6783 14.9458 96.6491 14.9292L93.1862 13.1093C93.16 13.0967 93.1312 13.0901 93.1019 13.0901C93.0728 13.0901 93.0441 13.0967 93.0177 13.1093L89.5549 14.9292C89.5256 14.9458 89.4922 14.9536 89.4587 14.9519C89.4252 14.9501 89.3928 14.9389 89.3654 14.9194C89.338 14.9 89.3167 14.8732 89.3041 14.8421C89.2912 14.8111 89.2878 14.7769 89.2937 14.7439L89.9509 10.885C89.9572 10.8562 89.9558 10.8263 89.947 10.7982C89.9381 10.7701 89.922 10.7448 89.9003 10.7249L87.0946 7.98663C87.0734 7.9623 87.0589 7.93283 87.0524 7.90115C87.0461 7.86947 87.0482 7.83668 87.0584 7.80602C87.0686 7.77536 87.0866 7.74792 87.1107 7.72638C87.1347 7.70487 87.1641 7.69002 87.1957 7.68331L91.0714 7.11881C91.0996 7.11534 91.1267 7.10512 91.1501 7.08898C91.1737 7.07284 91.1928 7.05128 91.2063 7.02612L92.942 3.51271C92.9562 3.48234 92.9788 3.45665 93.0072 3.43867C93.0355 3.42068 93.0684 3.41113 93.1019 3.41113C93.1356 3.41113 93.1684 3.42068 93.1968 3.43867C93.2251 3.45665 93.2478 3.48234 93.2621 3.51271Z" fill="#0B0C0D"/>
<path d="M40.5146 26.9677L38.5074 23.9997V23.9891C39.607 23.7542 40.3117 23.0282 40.3117 21.7363C40.3117 20.391 39.5537 19.3875 37.8028 19.3875H35.1123V26.9677H36.0411V24.0745H37.4717L39.3935 26.9677H40.5146ZM36.0411 20.2416H37.6853C38.721 20.2416 39.3508 20.754 39.3508 21.7149C39.3508 22.5798 38.817 23.2204 37.5571 23.2204H36.0411V20.2416ZM46.3724 24.288C46.3724 22.7933 45.4115 21.7043 43.9595 21.7043C42.5502 21.7043 41.472 22.8039 41.472 24.3734C41.472 25.9535 42.5823 27.0318 44.0557 27.0318C45.0058 27.0318 45.7105 26.6368 46.1589 26.0603L45.5504 25.5371C45.2301 25.9428 44.739 26.2417 44.0877 26.2417C43.1481 26.2417 42.4648 25.6119 42.3475 24.6403H46.3511C46.3511 24.6083 46.3724 24.4267 46.3724 24.288ZM44.0022 22.505C44.835 22.505 45.3796 23.0709 45.5183 23.925H42.3794C42.5396 23.0388 43.1908 22.505 44.0022 22.505ZM51.7188 21.7684V22.5477H51.7081C51.2704 22.0033 50.6298 21.7043 49.9144 21.7043C48.4411 21.7043 47.3734 22.868 47.3734 24.4054C47.3734 25.9963 48.4838 27.0318 49.9252 27.0318C50.6831 27.0318 51.3237 26.7009 51.7402 26.1457H51.7508V26.9677H52.5835V21.7684H51.7188ZM49.9998 26.2417C48.9429 26.2417 48.2489 25.4517 48.2489 24.4054C48.2489 23.2523 49.0283 22.505 50.0106 22.505C51.0142 22.505 51.7508 23.3377 51.7508 24.4054C51.7508 25.5051 50.9394 26.2417 49.9998 26.2417ZM58.1823 19.1099V22.5477H58.1717C57.7446 22.0033 57.104 21.7043 56.3994 21.7043C54.926 21.7043 53.8584 22.868 53.8584 24.4054C53.8584 25.9963 54.9687 27.0318 56.41 27.0318C57.1573 27.0318 57.7873 26.7009 58.2036 26.1457H58.225V26.9677H59.0471V19.1099H58.1823ZM56.4848 26.2417C55.4277 26.2417 54.7338 25.4517 54.7338 24.4054C54.7338 23.2523 55.5132 22.505 56.4954 22.505C57.4776 22.505 58.2144 23.3377 58.2144 24.4054C58.2144 25.5051 57.403 26.2417 56.4848 26.2417ZM69.1867 26.9677L67.1795 23.9997V23.9891C68.2792 23.7542 68.9839 23.0282 68.9839 21.7363C68.9839 20.391 68.2258 19.3875 66.4748 19.3875H63.7844V26.9677H64.7133V24.0745H66.1439L68.0657 26.9677H69.1867ZM64.7133 20.2416H66.3575C67.393 20.2416 68.023 20.754 68.023 21.7149C68.023 22.5798 67.4892 23.2204 66.2294 23.2204H64.7133V20.2416ZM75.0446 24.288C75.0446 22.7933 74.0837 21.7043 72.6317 21.7043C71.2225 21.7043 70.1441 22.8039 70.1441 24.3734C70.1441 25.9535 71.2544 27.0318 72.7278 27.0318C73.678 27.0318 74.3827 26.6368 74.8311 26.0603L74.2225 25.5371C73.9022 25.9428 73.4111 26.2417 72.7599 26.2417C71.8203 26.2417 71.137 25.6119 71.0195 24.6403H75.0233C75.0233 24.6083 75.0446 24.4267 75.0446 24.288ZM72.6745 22.505C73.5072 22.505 74.0517 23.0709 74.1905 23.925H71.0516C71.2117 23.0388 71.863 22.505 72.6745 22.505ZM79.6918 21.7684L78.1223 25.8681H78.0903L76.4889 21.7684H75.5599L77.6846 26.9677H78.5174L80.6313 21.7684H79.6918ZM82.2267 20.8075C82.5684 20.8075 82.846 20.5405 82.846 20.1989C82.846 19.868 82.5684 19.5904 82.2267 19.5904C81.8745 19.5904 81.6075 19.868 81.6075 20.1989C81.6075 20.5405 81.8745 20.8075 82.2267 20.8075ZM81.789 26.9677H82.6538V21.7684H81.789V26.9677ZM88.9636 24.288C88.9636 22.7933 88.0027 21.7043 86.5507 21.7043C85.1415 21.7043 84.0631 22.8039 84.0631 24.3734C84.0631 25.9535 85.1734 27.0318 86.6468 27.0318C87.597 27.0318 88.3017 26.6368 88.7501 26.0603L88.1415 25.5371C87.8212 25.9428 87.3301 26.2417 86.6789 26.2417C85.7393 26.2417 85.056 25.6119 84.9385 24.6403H88.9423C88.9423 24.6083 88.9636 24.4267 88.9636 24.288ZM86.5935 22.505C87.4262 22.505 87.9707 23.0709 88.1095 23.925H84.9706C85.1307 23.0388 85.782 22.505 86.5935 22.505ZM96.2164 21.7684L94.8925 25.6546H94.8712L93.6646 21.7684H92.9173L91.7323 25.6546H91.7109L90.387 21.7684H89.5116L91.3158 26.9677H92.1059L93.291 23.1777H93.3017L94.4761 26.9677H95.2875L97.0919 21.7684H96.2164ZM99.7369 27.0318C100.986 27.0318 101.595 26.3593 101.595 25.5478C101.605 24.5229 100.879 24.3413 99.7796 23.9143C99.2244 23.7007 98.7974 23.5086 98.7974 23.1029C98.7974 22.7293 99.2031 22.4944 99.598 22.4944C100.036 22.4944 100.516 22.6331 100.975 23.0282L101.424 22.3449C100.847 21.8751 100.26 21.7043 99.6408 21.7043C98.6479 21.7043 97.9219 22.3022 97.9219 23.1029C97.9219 24.0531 98.6372 24.4054 99.4807 24.7043C100.239 24.9606 100.719 25.11 100.719 25.5585C100.719 25.9322 100.356 26.2525 99.7369 26.2525C99.0002 26.2525 98.5518 26.0069 98.146 25.6333L97.6976 26.2845C98.2101 26.7436 98.8828 27.0318 99.7369 27.0318Z" fill="#0B0C0D"/>
</g>
</g>
<defs>
<clipPath id="clip0_273_3517">
<rect width="110" height="29.7647" fill="white" transform="translate(0.666504 0.89624)"/>
</clipPath>
</defs>
</svg>
